name rise45.9887peak57.8056fall74.9286.mot
datacolumns 19
datarows 14
range 18.76826100000000 18.78992700000000
endheader
time	ground_force1_vx	ground_force1_vy	ground_force1_vz	ground_force1_px	ground_force1_py	ground_force1_pz	ground_force2_vx	ground_force2_vy	ground_force2_vz	ground_force2_px	ground_force2_py	ground_force2_pz	ground_torque1_x	ground_torque1_y	ground_torque1_z	ground_torque2_x	ground_torque2_y	ground_torque2_z	
18.76826100000000	-39.56223700000000	776.43490899999995	57.95790900000000	0.09897400000000	0.00000000000000	0.12070200000000	-6.20432300000000	52.90890100000000	10.67872300000000	0.30883200000000	0.00000000000000	-0.08246400000000	0.00000000000000	21.50560900000000	0.00000000000000	0.00000000000000	6.16642000000000	0.00000000000000	
18.76992700000000	-39.74219800000000	774.19667400000003	57.76742100000000	0.09843900000000	0.00000000000000	0.12062200000000	-6.56771700000000	59.41533300000000	11.61894000000000	0.31414700000000	0.00000000000000	-0.08287100000000	0.00000000000000	21.39528300000000	0.00000000000000	0.00000000000000	6.81031300000000	0.00000000000000	
18.77159500000000	-39.92916400000000	771.87902699999995	57.55773900000000	0.09792200000000	0.00000000000000	0.12053800000000	-6.82072500000000	65.77497099999999	12.44116200000000	0.31906700000000	0.00000000000000	-0.08325300000000	0.00000000000000	21.28506800000000	0.00000000000000	0.00000000000000	7.39950400000000	0.00000000000000	
18.77326800000000	-40.12373200000000	769.48115600000006	57.32853200000000	0.09742200000000	0.00000000000000	0.12045000000000	-6.95929700000000	71.94609500000000	13.13717900000000	0.32362900000000	0.00000000000000	-0.08361500000000	0.00000000000000	21.17511000000000	0.00000000000000	0.00000000000000	7.92687100000000	0.00000000000000	
18.77492600000000	-40.32648600000000	767.00219500000003	57.07949800000000	0.09693900000000	0.00000000000000	0.12035700000000	-6.98423800000000	77.91199600000000	13.70556100000000	0.32786400000000	0.00000000000000	-0.08396000000000	0.00000000000000	21.06554800000000	0.00000000000000	0.00000000000000	8.38926600000000	0.00000000000000	
18.77659900000000	-40.53799200000000	764.44122700000003	56.81035900000000	0.09647100000000	0.00000000000000	0.12026100000000	-6.90043800000000	83.67845800000001	14.15072700000000	0.33179900000000	0.00000000000000	-0.08429100000000	0.00000000000000	20.95651000000000	0.00000000000000	0.00000000000000	8.78711400000000	0.00000000000000	
18.77826200000000	-40.75879600000000	761.79727500000001	56.52086900000000	0.09601800000000	0.00000000000000	0.12016000000000	-6.71591300000000	89.26981700000000	14.48169000000000	0.33545700000000	0.00000000000000	-0.08461100000000	0.00000000000000	20.84811600000000	0.00000000000000	0.00000000000000	9.12378600000000	0.00000000000000	
18.77992700000000	-40.98941400000000	759.06930899999998	56.21080900000000	0.09557900000000	0.00000000000000	0.12005600000000	-6.44075100000000	94.72418000000000	14.71064800000000	0.33885900000000	0.00000000000000	-0.08492200000000	0.00000000000000	20.74047800000000	0.00000000000000	0.00000000000000	9.40483900000000	0.00000000000000	
18.78159600000000	-41.23033600000000	756.25624100000005	55.87999100000000	0.09515200000000	0.00000000000000	0.11994700000000	-6.08607700000000	100.08834800000000	14.85155900000000	0.34202100000000	0.00000000000000	-0.08522700000000	0.00000000000000	20.63369800000000	0.00000000000000	0.00000000000000	9.63719500000000	0.00000000000000	
18.78326600000000	-41.48201500000000	753.35692200000005	55.52826000000000	0.09473700000000	0.00000000000000	0.11983500000000	-5.66311400000000	105.41290100000001	14.91881600000000	0.34496000000000	0.00000000000000	-0.08552600000000	0.00000000000000	20.52786700000000	0.00000000000000	0.00000000000000	9.82835500000000	0.00000000000000	
18.78493200000000	-41.74486700000000	750.37015099999996	55.15549300000000	0.09433300000000	0.00000000000000	0.11971900000000	-5.18239700000000	110.74781700000000	14.92611600000000	0.34769000000000	0.00000000000000	-0.08582000000000	0.00000000000000	20.42306700000000	0.00000000000000	0.00000000000000	9.98570400000000	0.00000000000000	
18.78659500000000	-42.01926500000000	747.29466800000000	54.76160400000000	0.09393800000000	0.00000000000000	0.11959800000000	-4.65317900000000	116.13887000000000	14.88557900000000	0.35022200000000	0.00000000000000	-0.08611100000000	0.00000000000000	20.31937000000000	0.00000000000000	0.00000000000000	10.11593400000000	0.00000000000000	
18.78826700000000	-42.30553400000000	744.12915599999997	54.34653900000000	0.09355000000000	0.00000000000000	0.11947400000000	-4.08304200000000	121.62495199999999	14.80713800000000	0.35256900000000	0.00000000000000	-0.08640000000000	0.00000000000000	20.21683500000000	0.00000000000000	0.00000000000000	10.22463600000000	0.00000000000000	
18.78992700000000	-42.60394800000000	740.87224900000001	53.91028300000000	0.09316900000000	0.00000000000000	0.11934700000000	-3.47769900000000	127.23636100000000	14.69820000000000	0.35474000000000	0.00000000000000	-0.08668700000000	0.00000000000000	20.11551200000000	0.00000000000000	0.00000000000000	10.31604000000000	0.00000000000000	
